<svg width="472" height="145" viewBox="0 0 472 145" fill="none" xmlns="http://www.w3.org/2000/svg">
<path d="M410.562 30.1142V15.0571V0H439.601V30.1142H463.634V53.2018H439.601C439.601 53.2018 440 111 440.102 112.627C440.204 114.254 442 116 442 116C444.103 117.807 446.811 117.445 450.116 117.445C452.619 117.445 457.125 116.542 460.13 115.438C464.335 113.932 466 113.5 466 113.5C466.2 114.203 467.74 120.658 469.142 126.48C471.145 134.811 471.5 137 471.5 137C470.799 137.402 465.537 139.63 461.131 141.135C455.623 142.942 450.116 143.946 443.607 144.348C436.597 144.649 432.592 144.348 428.386 143.143C424.281 142.039 421.176 140.232 418.072 137.321C415.168 134.51 412.965 131.398 411.964 128.487C410.862 124.874 410.562 117.044 410.562 53.2018H392.537V30.1142H410.562Z" fill="#FDCF00"/>
<path fill-rule="evenodd" clip-rule="evenodd" d="M0 0H29.0397V48.6847L32.2441 44.2679C34.0466 41.8588 37.5513 38.3455 40.0548 36.5386C42.5582 34.7317 47.2646 32.2222 50.5691 31.118C53.8737 29.9135 59.4813 28.7089 63.0863 28.4078C66.6912 28.1066 72.0986 28.4078 75.1027 29.01C78.1068 29.6123 83.5142 31.5196 87.1191 33.3264C90.9243 35.334 95.9312 39.0481 99.436 42.6618C103.542 46.7774 106.546 51.1942 109.249 56.7151C111.352 61.1319 113.756 68.2589 114.557 72.5753C115.458 76.7913 116.159 83.316 116.159 87.0301C116.159 90.8446 115.458 97.0682 114.657 100.883C113.856 104.697 111.553 111.322 109.55 115.438C107.247 120.156 103.842 125.175 100.237 128.789C97.1328 132.001 92.6267 135.916 90.1232 137.522C87.6198 139.128 83.6143 141.135 81.1109 142.039C78.6075 142.942 73.7008 144.046 70.0958 144.548C66.0904 145.151 60.9834 145.151 56.5774 144.548C52.2715 143.946 46.8641 142.24 42.5582 140.132C37.8518 137.823 33.8463 134.912 25.0342 125.476V142.541H0V0ZM40.1549 60.2285C37.6515 62.1357 34.2468 65.9502 32.3442 68.7608L29.0397 73.7799C29.0397 99.1762 29.3401 101.987 30.9423 105.199C32.0438 107.207 34.1467 110.118 35.7489 111.623C37.2509 113.029 40.5555 115.337 43.0589 116.542C46.2633 118.249 49.6679 119.052 55.0753 119.252C61.7845 119.553 63.2865 119.252 68.5938 116.642C71.8983 114.936 76.0039 111.925 77.8064 109.817C79.5087 107.608 82.0121 103.593 83.2138 100.883C85.0162 96.8674 85.5169 94.0568 85.5169 87.3313C85.5169 80.7061 85.0162 77.4939 83.1136 72.776C81.6116 68.8612 79.008 64.9464 75.7035 61.6338C71.8983 57.8193 69.1946 56.1128 65.089 54.8079C62.0849 53.9045 58.48 53.2018 57.078 53.2018C55.6761 53.2018 52.2715 54.0048 49.5678 55.0087C46.7639 55.9121 42.5582 58.3212 40.1549 60.2285ZM226.309 0H255.349V48.6847L258.554 44.2679C260.356 41.8588 263.861 38.3455 266.364 36.5386C268.868 34.7317 273.574 32.2222 276.879 31.118C280.183 29.9135 285.791 28.7089 289.396 28.4078C293.001 28.1066 298.408 28.4078 301.412 29.01C304.416 29.6123 309.824 31.5196 313.429 33.3264C317.234 35.334 322.241 39.0481 325.745 42.6618C329.851 46.7774 332.855 51.1942 335.559 56.7151C337.662 61.1319 340.065 68.2589 340.866 72.4749C341.767 76.7913 342.468 83.316 342.468 87.0301C342.468 90.8446 341.767 97.0682 340.966 100.883C340.165 104.697 337.862 111.322 335.859 115.438C333.556 120.156 330.151 125.175 326.547 128.789C323.442 132.001 318.936 135.916 316.433 137.522C313.929 139.128 309.924 141.135 307.42 142.039C304.917 142.942 300.01 144.046 296.405 144.548C292.4 145.151 287.293 145.151 282.887 144.548C278.581 143.946 273.174 142.24 268.868 140.132C264.161 137.823 260.156 134.912 251.344 125.476V142.541H226.309V0ZM266.464 60.2285C263.961 62.1357 260.556 65.9502 258.654 68.7608L255.349 73.7799C255.349 95.161 255.75 102.489 256.351 103.894C256.951 105.299 258.854 108.11 260.757 110.118C262.559 112.226 266.364 115.036 268.968 116.442C272.573 118.249 275.877 118.951 281.385 119.252C288.094 119.553 289.496 119.252 294.903 116.642C298.208 114.936 302.313 111.925 304.116 109.817C305.818 107.608 308.322 103.593 309.523 100.883C311.326 96.8674 311.826 94.0568 311.826 87.3313C311.826 80.7061 311.326 77.4939 309.423 72.776C307.921 68.8612 305.317 64.9464 302.013 61.6338C298.208 57.8193 295.504 56.1128 291.398 54.8079C288.394 53.9045 284.789 53.2018 283.387 53.2018C281.986 53.2018 278.581 54.0048 275.877 55.0087C273.073 55.9121 268.868 58.3212 266.464 60.2285Z" fill="#02274F"/>
<path d="M352.482 142.541V86.3275V30.1143H381.522V142.541H352.482Z" fill="#FDCF00"/>
<path d="M136.686 24.0914C140.492 22.5857 146.9 20.5781 150.706 19.775C154.511 18.8716 161.821 18.1689 166.728 18.1689C171.634 18.1689 178.944 18.7712 182.749 19.6747C186.555 20.4777 192.363 22.5857 195.667 24.3926C198.872 26.1994 203.177 29.4116 205.08 31.62C207.083 33.8283 209.786 38.1447 211.188 41.1561C213.191 45.5729 213.692 48.2832 213.692 54.7075C213.692 61.3327 213.291 63.7418 211.088 68.2589C209.686 71.2704 206.482 75.7875 204.079 78.297C201.775 80.8065 196.568 84.9222 192.763 87.4317C188.958 89.9412 183.25 93.3541 180.246 94.8599C177.242 96.3656 172.035 99.1762 168.73 101.184C165.426 103.091 160.319 107.006 157.415 109.817C154.511 112.627 152.208 115.237 152.208 115.739C152.208 116.141 166.627 116.442 216.295 116.442V142.541H113.154V136.317C113.154 132.804 113.855 127.182 114.656 123.77C115.457 120.256 117.36 115.036 118.862 112.226C120.264 109.315 123.969 104.296 127.073 101.083C130.178 97.8713 136.086 93.053 140.191 90.4431C144.297 87.8332 152.608 83.1153 158.717 79.9031C164.825 76.6909 171.835 72.5753 174.438 70.6681C177.342 68.5601 179.845 65.7494 180.847 63.5411C181.848 61.1319 182.149 58.6224 181.648 56.7152C181.348 55.1091 180.046 52.3988 178.844 50.7927C177.743 49.0862 174.939 46.9782 172.736 45.9744C170.332 44.8702 166.327 44.1676 162.422 44.1676C158.717 44.1676 154.11 44.9706 151.006 46.0748C147.702 47.3797 143.095 50.3912 132.18 60.2285L123.168 49.6885L122.956 49.4402C114.353 39.3459 114.169 39.1307 115.858 36.9401C116.859 35.836 120.364 33.0253 123.669 30.9173C126.973 28.8093 132.881 25.6975 136.686 24.0914Z" fill="#02274F"/>
</svg>
